# xmcd
#
# Track frame offsets:
#	150
#	17961
#	36442
#	51693
#	69000
#	84317
#	99447
#	113350
#	126913
#	149972
#	167008
#
# Disc length: 2563 seconds
#
# Revision: 1
# Processed by: cddbd v1.5.2PL0 Copyright (c) Steve Scherf et al.
# Submitted via: dBpowerAMP V4.0
#
DISCID=980a010b
DTITLE=Kings of Leon - Only By The Night
DYEAR=1900
DGENRE=AlternRock
TTITLE0=1 Closer
TTITLE1=2 Crawl
TTITLE2=3 Sex On Fire
TTITLE3=4 Use Somebody
TTITLE4=5 Manhattan
TTITLE5=6 Revelry
TTITLE6=7 17
TTITLE7=8  Notion
TTITLE8=9 I Want You
TTITLE9=10 Be Somebody
TTITLE10=11 Cold Desert
EXTD=
EXTT0=
EXTT1=
EXTT2=
EXTT3=
EXTT4=
EXTT5=
EXTT6=
EXTT7=
EXTT8=
EXTT9=
EXTT10=
PLAYORDER=
